PathFileType	4	(X/Y/Z)	s01c0201.trc
DataRate	CameraRate	NumFrames	NumMarkers	Units	OrigDataRate	OrigDataStartFrame	OrigNumFrames
200	200	4	48	mm	200	1000	2000
Frame#	Time	racr			lacr			c7			jug			rlel			rdr			llel			ldr			s2			lic			ric			lasi			rasi			rpsi			lpsi			rgt			lgt			rth1			rth2			rth3			rth4			rlfc			rsh1			rsh2			rsh3			rsh4			rlmal			rmmal			rcal			rtoe			rmt5			lth1			lth2			lth4			lth3			llfc			lsh1			lsh2			lsh3			lsh4			llmal			lmmal			lcal			ltoe			lmt5			SBIKE			LBIKE			RBIKE			
		X1	Y1	Z1	X2	Y2	Z2	X3	Y3	Z3	X4	Y4	Z4	X5	Y5	Z5	X6	Y6	Z6	X7	Y7	Z7	X8	Y8	Z8	X9	Y9	Z9	X10	Y10	Z10	X11	Y11	Z11	X12	Y12	Z12	X13	Y13	Z13	X14	Y14	Z14	X15	Y15	Z15	X16	Y16	Z16	X17	Y17	Z17	X18	Y18	Z18	X19	Y19	Z19	X20	Y20	Z20	X21	Y21	Z21	X22	Y22	Z22	X23	Y23	Z23	X24	Y24	Z24	X25	Y25	Z25	X26	Y26	Z26	X27	Y27	Z27	X28	Y28	Z28	X29	Y29	Z29	X30	Y30	Z30	X31	Y31	Z31	X32	Y32	Z32	X33	Y33	Z33	X34	Y34	Z34	X35	Y35	Z35	X36	Y36	Z36	X37	Y37	Z37	X38	Y38	Z38	X39	Y39	Z39	X40	Y40	Z40	X41	Y41	Z41	X42	Y42	Z42	X43	Y43	Z43	X44	Y44	Z44	X45	Y45	Z45	X46	Y46	Z46	X47	Y47	Z47	X48	Y48	Z48	
1000	5.0000	527.412793	1227.817408	-104.784280	506.157508	1231.411440	-469.391118	500.548141	1349.050958	-279.751977	482.739798	1182.160388	-283.108396	460.343573	972.139789	22.601820	654.783605	872.541938	-76.151376	446.094515	965.070400	-572.929532	646.925109	877.596018	-457.554482	-26.328031	1150.427920	-243.486818	115.410522	1169.206413	-434.327020	139.795036	1157.835519	-97.759609	126.334070	1113.660814	-410.662871	168.299931	1121.478656	-131.417105	5.626304	1191.143847	-193.613579	-5.832006	1195.659620	-297.084863	107.795442	1056.680944	-64.875087	63.358127	1020.149008	-443.627632	228.387821	1010.580313	-67.820506	308.466076	994.043611	-82.063151	391.793035	969.873525	-102.309774	319.361264	1045.975186	-100.785200	470.962737	907.465343	-140.956145	389.781336	836.131625	-102.472489	331.459558	775.284936	-101.656253	264.033564	716.854007	-105.262277	364.494398	739.753043	-136.993038	166.967340	638.796140	-114.238518	204.611955	618.873738	-193.556365	118.140980	643.907674	-168.504948	279.408033	425.279573	-143.314998	190.239234	489.752829	-78.916153	109.243431	898.198437	-447.319388	166.762036	830.068280	-449.452793	209.497329	864.796171	-451.102122	216.687596	762.244143	-431.887778	271.483031	658.562273	-417.987338	223.617298	558.137364	-452.829524	211.124263	472.548860	-444.644617	196.573494	388.977762	-430.168842	267.641570	467.087587	-420.691727	185.028274	260.520217	-415.368641	186.671516	232.818953	-367.442893	134.621628	230.043652	-369.373842	405.061948	181.493671	-383.784396	297.187569	165.353027	-447.270506	-228.349108	891.397297	-253.083526	-21.438739	80.278306	-454.239860	-21.419007	80.421034	-54.102568	
1001	5.0050	526.444344	1228.556949	-102.114049	508.000960	1231.867409	-467.096405	501.056103	1349.363201	-277.623381	483.001266	1182.554803	-281.125164	459.695638	971.821752	22.168313	654.648873	872.704102	-76.440026	446.966186	966.706038	-572.693132	647.196621	877.793000	-457.599003	-26.387485	1151.152508	-245.177122	117.356796	1168.626860	-435.113359	139.013593	1158.656547	-98.377705	126.938980	1113.628653	-411.472771	167.809873	1122.329038	-131.881536	5.392317	1191.642085	-195.146561	-5.570661	1195.959820	-298.702654	107.116340	1058.157694	-65.363592	63.416528	1020.400856	-444.670717	227.234805	1013.384836	-68.495032	307.914608	998.132087	-81.838075	390.803855	975.925301	-100.740405	317.979073	1050.257688	-100.594199	473.181968	915.408751	-139.343242	391.338312	843.685706	-102.137124	333.945857	782.356608	-101.875480	267.142709	723.221030	-105.896500	367.885480	746.592269	-136.699054	171.581590	642.856986	-115.953925	210.581521	623.702823	-194.958073	122.707044	646.276691	-170.152930	290.142283	432.597280	-143.185628	198.855954	494.872004	-79.478362	107.424947	898.110685	-448.663931	163.803497	828.893423	-450.824919	207.394158	863.050336	-452.708098	212.596283	760.365179	-433.340942	265.576795	655.776273	-419.252093	216.525192	555.678937	-453.773102	203.724789	470.206855	-445.236761	188.669678	386.796466	-430.499460	260.372652	464.463430	-421.794897	174.607004	259.783177	-414.736696	178.302505	229.797140	-368.394968	126.415933	228.452638	-369.045183	395.843936	176.041888	-383.744232	287.698493	161.441460	-447.087101	-228.389448	891.445608	-253.146956	-21.461673	80.288319	-454.266284	-21.436090	80.453740	-54.115284	
1002	5.0100	525.467432	1229.347103	-99.422182	509.799433	1232.337705	-464.756429	501.593291	1349.579472	-275.443836	483.206443	1182.924777	-279.064369	458.935488	971.509918	21.859619	654.517232	872.858412	-76.699841	447.980583	968.404189	-572.361559	647.497986	877.928994	-457.651819	-26.571817	1151.615182	-246.594095	117.625457	1167.917918	-434.184359	138.145977	1159.513764	-98.962831	127.504769	1113.742213	-412.379996	167.264081	1123.401271	-132.407673	5.155812	1192.111720	-196.563219	-5.333557	1196.352118	-300.273932	106.423051	1059.940820	-65.867675	63.191165	1020.733295	-445.469911	226.211222	1016.398738	-69.025674	307.190228	1002.369024	-81.938745	393.172356	981.097742	-101.944221	316.532437	1054.617903	-100.595738	474.573919	923.164479	-138.353021	392.761227	851.245221	-101.888685	336.404086	788.683853	-102.085923	270.486131	728.552362	-106.629649	370.830871	753.110188	-136.554517	176.598865	645.927708	-118.045711	216.616066	627.592923	-196.033821	128.015823	648.015783	-171.671545	300.857608	439.266588	-143.467426	207.959567	499.153741	-80.071311	105.757900	898.207578	-449.946674	161.073937	828.014696	-452.252101	205.179447	861.605482	-454.338990	208.809771	758.898120	-435.010741	260.226370	653.497252	-420.581570	210.077931	553.859970	-454.790898	196.574806	468.580895	-445.871356	180.909466	385.313442	-430.876982	253.368217	462.257772	-422.859846	164.583874	259.466294	-414.290004	169.731469	227.836426	-368.909604	117.956298	227.574484	-368.885540	386.315835	171.373790	-383.671329	277.950060	158.228116	-446.934188	-228.436577	891.496713	-253.258868	-21.460014	80.325120	-454.246598	-21.428874	80.442403	-54.116042	
1003	5.0150	524.423939	1229.915342	-96.823041	511.672074	1232.721951	-462.335102	502.105744	1349.732988	-273.225408	483.444673	1183.412225	-277.052633	458.081819	971.007674	21.606623	654.444184	872.967854	-76.953781	448.963647	970.104056	-572.183270	647.816016	878.054067	-457.764370	-26.832077	1152.323860	-247.873664	119.363389	1167.581517	-434.650525	137.240604	1160.460979	-99.397119	128.025792	1113.992222	-413.397074	166.521707	1124.620027	-132.969630	4.816195	1192.752525	-197.990304	-5.129753	1196.844214	-301.797820	105.746991	1061.904920	-66.377945	62.898002	1021.310660	-446.477676	225.166132	1019.452904	-69.612130	306.243325	1006.526393	-82.392029	392.545833	986.563071	-101.549358	315.100812	1059.261688	-100.610631	475.441725	930.423536	-137.245194	394.225134	857.706341	-101.681112	339.017176	794.150364	-102.157505	274.225892	732.828560	-107.157325	374.509256	758.976445	-135.839476	182.379568	648.661337	-119.038451	222.831424	630.726632	-196.638755	133.001441	648.986258	-172.151991	311.679237	445.192396	-143.662004	217.113897	502.665187	-80.406001	104.288845	898.424038	-451.249600	158.639310	827.446729	-453.716130	203.230893	860.506937	-456.037357	205.505823	757.667416	-436.711080	255.445927	651.723615	-421.923052	204.180744	552.595334	-455.720555	189.707792	467.642840	-446.464733	173.283440	384.478058	-431.218184	246.627697	460.662381	-423.954246	154.950215	259.619469	-414.004515	160.964381	226.993283	-368.938476	109.233755	227.436831	-368.957984	376.623901	167.141300	-383.573347	268.037445	155.685006	-446.788943	-228.495332	891.531409	-253.349575	-21.476775	80.296336	-454.280701	-21.432877	80.479899	-54.142279	
